# xmcd CD database file
#
# Track frame offsets:
#	150
#	14380
#	31052
#	50587
#	64212
#	82087
#	104217
#	124727
#	138260
#	161072
#	173935
#	199017
#	214657
#	228582
#	251447
#
# Disc length: 3591 seconds
#
# Revision: 1
# Processed by: cddbd v1.5.2PL0 Copyright (c) Steve Scherf et al.
# Submitted via: CDex 1.77
#
DISCID=d70e050f
DTITLE=The Talleys - Southern Gospel Treasury
DYEAR=1900
DGENRE=Country
TTITLE0=God's Gonna Send Revival
TTITLE1=Love Will
TTITLE2=I Can Touch Him
TTITLE3=There's Still Power In The Blood
TTITLE4=My Redeemer Is Faithful And True
TTITLE5=Namaan
TTITLE6=Triumphantly The Church Will Rise
TTITLE7=It Runs In The Family
TTITLE8=This Same Jesus
TTITLE9=Typical Day
TTITLE10=Unmerited Favor Of God
TTITLE11=We Are Still The Church
TTITLE12=Wherever I Am
TTITLE13=Hallelujah Praise The Lamb
TTITLE14=He Is Here
EXTD=
EXTT0=
EXTT1=
EXTT2=
EXTT3=
EXTT4=
EXTT5=
EXTT6=
EXTT7=
EXTT8=
EXTT9=
EXTT10=
EXTT11=
EXTT12=
EXTT13=
EXTT14=
PLAYORDER=
